<svg width="1200" height="630" viewBox="0 0 1200 630" fill="none" xmlns="http://www.w3.org/2000/svg">
  <rect width="1200" height="630" fill="#020617"/>
  <rect width="1200" height="630" fill="url(#paint0_radial)"/>
  <rect x="56" y="56" width="1088" height="518" rx="36" fill="url(#paint1_linear)" stroke="rgba(255,255,255,0.12)"/>
  <circle cx="1027" cy="132" r="88" fill="#38BDF8" fill-opacity="0.18"/>
  <circle cx="914" cy="510" r="120" fill="#FB923C" fill-opacity="0.16"/>
  <g opacity="0.96">
    <rect x="90" y="94" width="164" height="164" rx="40" fill="#F8FAFC"/>
    <rect x="104" y="108" width="136" height="136" rx="32" fill="url(#paint2_linear)"/>
    <path d="M141 144H194V158H157V169H188C202.359 169 214 180.641 214 195V210H161C146.641 210 135 198.359 135 184V150C135 146.686 137.686 144 141 144Z" fill="#F8FAFC"/>
    <circle cx="206" cy="147" r="14" fill="#FB923C"/>
  </g>
  <text x="90" y="332" fill="#7DD3FC" font-family="Sora, Arial, sans-serif" font-size="24" font-weight="700" letter-spacing="6">FULL-STACK DEVELOPER PORTFOLIO</text>
  <text x="90" y="404" fill="#F8FAFC" font-family="Sora, Arial, sans-serif" font-size="68" font-weight="800">Charles Gratela</text>
  <text x="90" y="464" fill="#CBD5E1" font-family="Manrope, Arial, sans-serif" font-size="28" font-weight="500">Backend-focused builds, mobile-first products, and</text>
  <text x="90" y="504" fill="#CBD5E1" font-family="Manrope, Arial, sans-serif" font-size="28" font-weight="500">practical full-stack case studies with React, TypeScript, and Supabase.</text>
  <g>
    <rect x="90" y="534" width="190" height="44" rx="22" fill="rgba(255,255,255,0.10)" stroke="rgba(255,255,255,0.14)"/>
    <text x="123" y="562" fill="#F8FAFC" font-family="Manrope, Arial, sans-serif" font-size="20" font-weight="700">React + TypeScript</text>
    <rect x="295" y="534" width="164" height="44" rx="22" fill="rgba(255,255,255,0.10)" stroke="rgba(255,255,255,0.14)"/>
    <text x="341" y="562" fill="#F8FAFC" font-family="Manrope, Arial, sans-serif" font-size="20" font-weight="700">Supabase</text>
    <rect x="474" y="534" width="170" height="44" rx="22" fill="rgba(255,255,255,0.10)" stroke="rgba(255,255,255,0.14)"/>
    <text x="519" y="562" fill="#F8FAFC" font-family="Manrope, Arial, sans-serif" font-size="20" font-weight="700">Mobile-First UI</text>
  </g>
  <defs>
    <radialGradient id="paint0_radial" cx="0" cy="0" r="1" gradientUnits="userSpaceOnUse" gradientTransform="translate(998 74) rotate(124.403) scale(701.133 1057.03)">
      <stop stop-color="#38BDF8" stop-opacity="0.22"/>
      <stop offset="1" stop-color="#020617" stop-opacity="0"/>
    </radialGradient>
    <linearGradient id="paint1_linear" x1="101" y1="77" x2="1083" y2="572" gradientUnits="userSpaceOnUse">
      <stop stop-color="#0F172A"/>
      <stop offset="0.45" stop-color="#111827"/>
      <stop offset="1" stop-color="#0C4A6E"/>
    </linearGradient>
    <linearGradient id="paint2_linear" x1="116" y1="116" x2="226" y2="230" gradientUnits="userSpaceOnUse">
      <stop stop-color="#0F172A"/>
      <stop offset="1" stop-color="#0369A1"/>
    </linearGradient>
  </defs>
</svg>
